HIERARCHY
ROOT Hips
{
	OFFSET 0.00000 0.00000 0.00000
	CHANNELS 6 Xposition Yposition Zposition Yrotation Zrotation Xrotation 
	JOINT Lumbar
	{
		OFFSET 0 0 0
		CHANNELS 3 Zrotation Xrotation Yrotation
		JOINT Neck
		{
			OFFSET 0.00 0.2701 0.00
			CHANNELS 3 Zrotation Xrotation Yrotation
			End Site
			{
				OFFSET 0.00 0.1379 0.00
			}
		}
		JOINT RightShoulder
		{
			OFFSET 0.0119 0.2289 0.1181
			CHANNELS 3 Zrotation Xrotation Yrotation
			JOINT RightElbow
			{
				OFFSET 0.00 -0.1475 0.00
				CHANNELS 2 Zrotation Yrotation
				JOINT RightWrist
				{
					OFFSET 0.00 -0.1605 0.00
					CHANNELS 2 Zrotation Xrotation
					End Site
					{
						OFFSET 0.0040 -0.1068 0.0006
					}
				}
			}
		}
		JOINT LeftShoulder
		{
			OFFSET 0.0119 0.2289 -0.1181
			CHANNELS 3 Zrotation Xrotation Yrotation
			JOINT LeftElbow
			{
				OFFSET 0.00 -0.1475 0.00
				CHANNELS 2 Zrotation Yrotation
				JOINT LeftWrist
				{
					OFFSET 0.00 -0.1605 0.00
					CHANNELS 2 Zrotation Xrotation
					End Site
					{
						OFFSET 0.0040 -0.1068 -0.0006
					}
				}
			}
		}
	}
	JOINT RightHip
	{
		OFFSET 0.0316 -0.0424 0.0458
		CHANNELS 3 Zrotation Xrotation Yrotation
		JOINT RightKnee
		{
			OFFSET 0.00 -0.2438 0.00
			CHANNELS 1 Zrotation
			JOINT RightAnkle
			{
				OFFSET 0.00 -0.2449 0.00
				CHANNELS 3 Zrotation Xrotation Yrotation
				End Site
				{
					OFFSET 0.1237 -0.0542 0.0051
				}
			}
		}
	}
	JOINT LeftHip
	{
		OFFSET 0.0316 -0.0424 -0.0458
		CHANNELS 3 Zrotation Xrotation Yrotation
		JOINT LeftKnee
		{
			OFFSET 0.00 -0.2438 0.00
			CHANNELS 1 Zrotation
			JOINT LeftAnkle
			{
				OFFSET 0.00 -0.2449 0.00
				CHANNELS 3 Zrotation Xrotation Yrotation
				End Site
				{
					OFFSET 0.1237 -0.0542 -0.0051
				}
			}
		}
	}
}
MOTION
Frames: 28
Frame Time: 0.02
3e-05 3e-05 -0.00025 -180.64126 -36.46444 -3.69467 46.81737 2.70566 -2.38635 -15.86373 -1.29186 -0.54121 50.56708 -101.69103 55.63107 7.04466 90.09895 10.92749 -0.67687 13.85617 105.43272 -55.62003 8.89814 -85.64661 6.12252 1.10536 42.23187 -3.78408 -10.25817 -21.88808 -6.87751 -1.94802 -3.18613 46.03898 7.46666 3.13021 -27.06999 -6.94237 2.17847 3.33069
0.00012 3e-05 -0.00027 -180.63623 -36.4693 -3.69216 46.78476 2.70611 -2.40909 -15.87727 -1.28934 -0.5418 50.63131 -101.71241 55.63137 7.03991 90.09628 10.951 -0.6538 13.8958 105.40762 -55.62141 8.90372 -85.63259 6.14365 1.15442 42.25073 -3.76516 -10.16473 -21.89456 -6.87706 -1.95461 -3.19127 46.05197 7.50358 3.27819 -27.07346 -6.94266 2.17198 3.32524
0.0002 3e-05 -0.0003 -180.6313 -36.47444 -3.68968 46.75251 2.70659 -2.43175 -15.89081 -1.28682 -0.5424 50.69511 -101.73382 55.63168 7.03523 90.0936 10.97443 -0.63082 13.93558 105.38264 -55.62279 8.90927 -85.61856 6.1648 1.20329 42.26993 -3.74629 -10.07143 -21.9011 -6.87662 -1.96118 -3.19639 46.06527 7.54041 3.42586 -27.07695 -6.94295 2.16551 3.31981
0.00029 3e-05 -0.00033 -180.6263 -36.47934 -3.68718 46.72005 2.70705 -2.45442 -15.90431 -1.2843 -0.54299 50.7591 -101.75515 55.63198 7.03051 90.09093 10.99788 -0.60783 13.97513 105.35762 -55.62417 8.91484 -85.60457 6.18589 1.2522 42.28881 -3.72743 -9.97825 -21.90756 -6.87618 -1.96775 -3.20152 46.07828 7.57723 3.5734 -27.08042 -6.94324 2.15904 3.31438
0.00037 3e-05 -0.00036 -180.62116 -36.48381 -3.68465 46.6871 2.70749 -2.47719 -15.91781 -1.28179 -0.54358 50.82361 -101.77644 55.63229 7.0257 90.08829 11.0214 -0.58476 14.01444 105.33247 -55.62556 8.92045 -85.59061 6.20688 1.30129 42.30716 -3.70854 -9.885 -21.91392 -6.87572 -1.97432 -3.20665 46.09083 7.61411 3.72121 -27.08385 -6.94353 2.15254 3.30893
0.00045 3e-05 -0.00039 -180.61665 -36.49036 -3.68226 46.65629 2.70804 -2.4996 -15.93144 -1.27925 -0.54418 50.88594 -101.7981 55.63259 7.0213 90.08551 11.04462 -0.56195 14.05517 105.30784 -55.62692 8.92586 -85.57646 6.22837 1.34971 42.32812 -3.68972 -9.79161 -21.92084 -6.8753 -1.98089 -3.21176 46.10567 7.65085 3.86861 -27.08747 -6.94383 2.14611 3.30355
0.00054 3e-05 -0.00042 -180.61091 -36.49279 -3.67959 46.6213 2.70836 -2.52271 -15.94477 -1.27677 -0.54477 50.95253 -101.81897 55.6329 7.01608 90.08302 11.06845 -0.53864 14.093 105.2822 -55.62832 8.93166 -85.56267 6.2489 1.39947 42.34391 -3.67075 -9.69856 -21.92665 -6.87483 -1.98747 -3.21691 46.11597 7.68783 4.01661 -27.0907 -6.94411 2.13957 3.29805
0.00062 3e-05 -0.00044 -180.60626 -36.49888 -3.67717 46.59003 2.70889 -2.54518 -15.95841 -1.27422 -0.54537 51.01529 -101.84059 55.63321 7.01159 90.08027 11.09166 -0.5158 14.13354 105.25747 -55.62969 8.93712 -85.54858 6.2702 1.4479 42.36427 -3.65195 -9.60529 -21.93344 -6.87439 -1.99403 -3.22202 46.13029 7.7246 4.16416 -27.09428 -6.9444 2.1331 3.29264
0.00071 2e-05 -0.00047 -180.60314 -36.51004 -3.67509 46.56386 2.70971 -2.56683 -15.97231 -1.27163 -0.54599 51.07296 -101.86309 55.6335 7.00809 90.07715 11.11434 -0.49351 14.17732 105.23394 -55.631 8.9421 -85.53401 6.29289 1.49508 42.3911 -3.63324 -9.51132 -21.94159 -6.87402 -2.00058 -3.22709 46.15028 7.76108 4.31084 -27.09835 -6.94472 2.12682 3.28739
0.0008 2e-05 -0.0005 -180.5918 -36.49385 -3.67118 46.51003 2.70895 -2.59308 -15.98435 -1.2694 -0.54649 51.15869 -101.88042 55.63384 6.99922 90.07599 11.14077 -0.46797 14.20222 105.20375 -55.63262 8.94963 -85.52187 6.30894 1.5506 42.38338 -3.61366 -9.42008 -21.94244 -6.87333 -2.00723 -3.23241 46.13993 7.79915 4.46158 -27.09979 -6.94494 2.11977 3.28137
0.00087 2e-05 -0.00053 -180.59744 -36.53415 -3.67103 46.51344 2.71147 -2.60972 -16.00054 -1.26635 -0.54724 51.18603 -101.9087 55.63409 7.00148 90.07082 11.15886 -0.44933 14.26706 105.18745 -55.63359 8.95191 -85.50483 6.33816 1.58779 42.44681 -3.59613 -9.32391 -21.95832 -6.8733 -2.01365 -3.23719 46.19207 7.83392 4.60434 -27.10667 -6.94533 2.11416 3.27687
0.00092 1e-05 -0.00053 -180.65328 -36.74107 -3.6823 46.68466 2.72357 -2.59887 -16.02639 -1.26144 -0.54864 51.04544 -101.96671 55.63408 7.03626 90.05343 11.15739 -0.44934 14.44277 105.21079 -55.63267 8.93868 -85.47235 6.41071 1.58017 42.72188 -3.58262 -9.20719 -22.01887 -6.87523 -2.01963 -3.24078 46.43005 7.859 4.71976 -27.12961 -6.94634 2.11405 3.27741
0.00094 -0 -0.00053 -180.72558 -37.00261 -3.69717 46.91137 2.73887 -2.57854 -16.0567 -1.25562 -0.55028 50.84807 -102.03567 55.63399 7.08186 90.03223 11.14696 -0.45628 14.65895 105.24771 -55.63111 8.92041 -85.43535 6.49512 1.55313 43.06545 -3.5715 -9.08692 -22.09388 -6.87781 -2.02532 -3.24378 46.72817 7.88083 4.82791 -27.15783 -6.94749 2.11512 3.27933
0.00097 -2e-05 -0.00053 -180.78791 -37.23155 -3.70967 47.10565 2.75232 -2.56333 -16.08608 -1.24998 -0.55181 50.68121 -102.09992 55.63393 7.12121 90.01355 11.13841 -0.46026 14.85504 105.27749 -55.62992 8.9051 -85.4017 6.56945 1.53137 43.36691 -3.56031 -8.9727 -22.16001 -6.87999 -2.03103 -3.2469 46.98932 7.90464 4.94323 -27.18288 -6.94845 2.11456 3.28
0.00102 -3e-05 -0.00053 -180.8605 -37.49328 -3.72522 47.33043 2.76738 -2.54482 -16.11088 -1.2454 -0.55334 50.49267 -102.1634 55.63388 7.16618 89.99154 11.13897 -0.46362 15.05592 105.31167 -55.62839 8.8868 -85.36247 6.66375 1.52451 43.71457 -3.54471 -8.83926 -22.23586 -6.8826 -2.03728 -3.25068 47.29106 7.92656 5.04323 -27.21116 -6.94991 2.11845 3.28319
0.00102 -4e-05 -0.00052 -180.91596 -37.69986 -3.73535 47.50489 2.77994 -2.53075 -16.14625 -1.23832 -0.55492 50.33792 -102.23066 55.63379 7.20207 89.97557 11.11859 -0.46972 15.2595 105.33954 -55.6274 8.87371 -85.3339 6.71907 1.48206 43.98258 -3.539 -8.74559 -22.29496 -6.88447 -2.04225 -3.25291 47.52281 7.95133 5.17213 -27.23403 -6.95038 2.11357 3.28159
0.00087 -6e-05 -0.00044 -180.91719 -37.73866 -3.72894 47.52617 2.78412 -2.53286 -16.20999 -1.22499 -0.55656 50.27415 -102.30907 55.63358 7.2097 89.9772 11.04133 -0.48323 15.43541 105.34965 -55.62813 8.87511 -85.33532 6.66475 1.34559 44.01079 -3.55887 -8.75755 -22.30373 -6.88412 -2.04441 -3.25125 47.54376 7.98744 5.39349 -27.23995 -6.94796 2.08238 3.26536
0.00066 -7e-05 -0.00034 -180.90111 -37.72045 -3.71707 47.49496 2.78581 -2.53945 -16.28419 -1.20905 -0.55823 50.25037 -102.39022 55.63332 7.20796 89.98512 10.94356 -0.49892 15.61819 105.35228 -55.62939 8.88242 -85.34794 6.5702 1.17397 43.95702 -3.58881 -8.81053 -22.29525 -6.883 -2.04517 -3.248 47.49273 8.02601 5.64199 -27.24038 -6.94456 2.04268 3.24446
0.00048 -9e-05 -0.00025 -180.89489 -37.72973 -3.70814 47.48827 2.78914 -2.54296 -16.35336 -1.19404 -0.55989 50.2177 -102.46794 55.6331 7.21081 89.99006 10.85597 -0.51268 15.81325 105.35653 -55.6304 8.88741 -85.35555 6.49399 1.01892 43.94278 -3.61489 -8.84809 -22.29501 -6.88224 -2.04612 -3.24533 47.47649 8.06175 5.8711 -27.24379 -6.94167 2.00804 3.22639
0.00029 -0.00011 -0.00017 -180.88097 -37.73426 -3.69736 47.48092 2.79047 -2.55062 -16.42372 -1.18023 -0.56155 50.13984 -102.55546 55.63281 7.21244 89.99506 10.76438 -0.53086 15.94118 105.36922 -55.63155 8.88952 -85.36184 6.41962 0.86115 43.92135 -3.63806 -8.87216 -22.29355 -6.88147 -2.04891 -3.24326 47.45356 8.10472 6.13035 -27.24532 -6.93852 1.96833 3.20537
0.0001 -0.00012 -6e-05 -180.87859 -37.73437 -3.68912 47.46149 2.7953 -2.55073 -16.4942 -1.16313 -0.56323 50.17137 -102.62282 55.63265 7.21451 90.00188 10.67645 -0.54 16.21447 105.3618 -55.6324 8.90055 -85.37466 6.32963 0.70038 43.89453 -3.66959 -8.93382 -22.29038 -6.88053 -2.04756 -3.23957 47.42671 8.13309 6.33262 -27.24945 -6.93569 1.93724 3.1894
-8e-05 -0.00014 0.00011 -180.9136 -37.7366 -3.68907 47.42372 2.81066 -2.52974 -16.56087 -1.13905 -0.56485 50.45476 -102.63557 55.63287 7.21818 90.00806 10.60283 -0.52586 16.85431 105.30504 -55.63304 8.92342 -85.39373 6.22432 0.54462 43.8727 -3.72234 -9.09164 -22.28625 -6.87932 -2.03506 -3.23168 47.40605 8.12208 6.37726 -27.26161 -6.93394 1.93131 3.18828
-0.00027 -0.00016 0.0003 -180.9605 -37.73608 -3.69176 47.37501 2.82959 -2.50085 -16.6276 -1.11148 -0.56652 50.85613 -102.62741 55.63322 7.22316 90.0162 10.53374 -0.50206 17.64949 105.22711 -55.63293 8.95792 -85.42075 6.10143 0.38614 43.84803 -3.78303 -9.28537 -22.28101 -6.87798 -2.01845 -3.22224 47.38381 8.09602 6.3625 -27.27662 -6.93255 1.93448 3.19243
-0.00046 -0.00017 0.00048 -181.00102 -37.7362 -3.69329 47.32953 2.84672 -2.47511 -16.69525 -1.0846 -0.56824 51.22843 -102.62784 55.6335 7.22845 90.0267 10.4632 -0.48123 18.39095 105.15631 -55.63307 8.99367 -85.44998 5.9746 0.22613 43.82431 -3.83969 -9.4612 -22.27654 -6.87671 -2.00374 -3.21357 47.36229 8.07588 6.37075 -27.29065 -6.93102 1.93396 3.1943
-0.00066 -0.00019 0.00067 -181.04502 -37.73663 -3.6943 47.28928 2.8645 -2.45151 -16.7591 -1.0615 -0.56965 51.49253 -102.63286 55.63385 7.22864 90.02544 10.38955 -0.46663 19.04795 105.09703 -55.63485 8.99916 -85.45477 5.89616 0.07716 43.79888 -3.89849 -9.64544 -22.2704 -6.87534 -1.98882 -3.20453 47.33796 8.05972 6.39659 -27.30326 -6.92936 1.93129 3.19556
-0.00083 -0.00021 0.00086 -181.08486 -37.73685 -3.69708 47.23663 2.88181 -2.42133 -16.83096 -1.02961 -0.5717 52.01692 -102.62252 55.63407 7.24107 90.04685 10.3235 -0.43654 19.93455 105.00724 -55.63145 9.07398 -85.51249 5.71399 -0.09572 43.77781 -3.9546 -9.81978 -22.26761 -6.87416 -1.97341 -3.19592 47.32043 8.03163 6.37155 -27.31947 -6.92807 1.93534 3.19939
-0.00092 -0.00022 0.00107 -181.11007 -37.73433 -3.70435 47.14889 2.89666 -2.37666 -16.92282 -0.97527 -0.57555 53.17598 -102.58056 55.63388 7.27575 90.15047 10.28165 -0.36844 21.26886 104.8499 -55.62646 9.30359 -85.71089 5.24469 -0.32473 43.76652 -4.00097 -9.96015 -22.27523 -6.87363 -1.95743 -3.18888 47.31921 7.97462 6.21891 -27.34589 -6.92776 1.95584 3.20915
-0.00098 -0.00023 0.00128 -181.13082 -37.73252 -3.71328 47.04993 2.91092 -2.32533 -17.02304 -0.91204 -0.58003 54.60857 -102.52198 55.63354 7.32412 90.27375 10.24814 -0.28514 22.85359 104.65912 -55.61318 9.60683 -85.96216 4.67345 -0.57732 43.76074 -4.04426 -10.08813 -22.28623 -6.87328 -1.9412 -3.18235 47.32582 7.90606 6.01745 -27.37572 -6.92781 1.98275 3.22131
